<svg width="2500" height="728" viewBox="0 0 512 149" xmlns="http://www.w3.org/2000/svg"><path d="M3.3 115.6v-57h71.2v-3.3H3.3v-52H79V0H0v119h79.6v-3.4H3.3zm140.5-82.3l-29.5 38.8-28.8-38.8H81l31.2 41.3L78.1 119h4L114.3 77l32.3 41.9h4.2l-34.3-44.4 31.3-41.3h-4zm17 115V95h.3c2 7.7 6 14 11.8 18.7 6 4.7 13.4 7 22.5 7a33.2 33.2 0 0027.1-13.2c3-4.1 5.4-9 7-14.4a60.7 60.7 0 000-35c-1.7-5.4-4.2-10.1-7.3-14.1a33.3 33.3 0 00-26.8-12.7 37 37 0 00-12 2c-3.8 1.2-7 3-10 5.4a36.7 36.7 0 00-7.5 8.2 38 38 0 00-4.8 10.4h-.3v-24h-3.4v115h3.4zm34.6-30.7a32 32 0 01-25.1-10.7c-6.4-7.2-9.5-17.5-9.5-31a53 53 0 012.3-15.8A41 41 0 01170 47a31.7 31.7 0 0125.6-12.3 29.6 29.6 0 0125 12.4c2.6 3.8 4.6 8.2 6 13.1a58 58 0 01.2 30.7c-1.3 5-3.3 9.4-6 13.3a28.8 28.8 0 01-25.3 13.4zm54.9 1.4V70.5c0-4.7.6-9.2 2-13.7 1.3-4.4 3.3-8.3 6.1-11.7 2.8-3.4 6.3-6 10.6-8s9.4-2.8 15.2-2.4v-3.4c-5 0-9.5.5-13.4 1.7a32.6 32.6 0 00-9.9 5c-2.8 2.1-5 4.6-6.6 7.4a33.1 33.1 0 00-3.7 9h-.3v-21h-3.4V119h3.4zm38.1-42.2H360c.3-5.9-.3-11.5-1.7-17a42.3 42.3 0 00-6.7-14.5 34 34 0 00-29-14 34.5 34.5 0 00-26 11.8 44.4 44.4 0 00-8.4 14 53.2 53.2 0 00-3.1 19c0 6.4.7 12.3 2.1 17.8a41.6 41.6 0 006.7 14.3c3 4 6.9 7.2 11.6 9.4a38.3 38.3 0 0017 3.2c9.8 0 18-2.8 24.7-8.3a34.1 34.1 0 0011.9-23.2h-3.4a32 32 0 01-11 21.2c-6 4.8-13.5 7.1-22.5 7.1-6 0-11.2-1-15.5-3.1a28 28 0 01-10.3-8.7c-2.7-3.7-4.6-8-6-13-1.2-4.9-1.9-10.2-2-16zm68.3-3.3h-68.3c.3-6 1.5-11.4 3.3-16.2a40 40 0 017.5-12.2 31 31 0 0123.7-10.4 30.3 30.3 0 0125.2 11.5c2.9 3.5 5 7.6 6.5 12.4 1.4 4.7 2.1 9.7 2.1 14.9zm72.5-14.9h3.3c0-9.5-2.8-16.4-8.3-20.8a36 36 0 00-22.7-6.5c-5.3 0-9.8.7-13.5 2a27 27 0 00-9 5.2c-2.3 2.1-4 4.4-5 7-1 2.5-1.5 5-1.5 7.3 0 4.7.9 8.4 2.5 11.2 1.7 2.8 4.3 5 7.9 6.5 2.4 1 5.2 2 8.3 3l10.8 2.8L413 79c3.5.9 6.7 2 9.4 3.6 2.7 1.5 5 3.4 6.6 5.7a15 15 0 012.6 9.2c0 3.6-.8 6.7-2.6 9.3a20.8 20.8 0 01-6.5 6.2 29.3 29.3 0 01-9 3.5c-3.2.8-6.4 1.1-9.5 1.1a35.4 35.4 0 01-23.3-6.7c-5.4-4.5-8-11.6-8-21.3h-3.4c0 10.8 3 18.7 8.8 23.7 5.8 5 14.4 7.5 25.9 7.5 3.6 0 7.3-.4 11-1.3 3.8-.8 7.1-2.1 10-4a22.6 22.6 0 007.2-7.4c1.8-3 2.8-6.6 2.8-11 0-4-.8-7.4-2.5-10a20.3 20.3 0 00-6.3-6.3c-2.6-1.7-5.5-3-8.8-4a516 516 0 00-10-2.7 1726.7 1726.7 0 00-12.2-3.1c-3.5-1-6.7-2-9.7-3.2-3-1.2-5.2-3-7-5.2a16 16 0 01-2.5-9.8c0-.8.2-2.2.6-4.1.5-2 1.5-4 3.2-6.1 1.7-2 4.2-4 7.7-5.5a34 34 0 0114.1-2.4c4.1 0 7.9.4 11.3 1.3 3.4.9 6.3 2.3 8.7 4.2 2.5 2 4.4 4.5 5.7 7.5 1.3 3 2 6.6 2 11zm77.1 0h3.4c0-9.5-2.8-16.4-8.4-20.8a36 36 0 00-22.6-6.5c-5.4 0-9.9.7-13.5 2a27 27 0 00-9 5.2c-2.3 2.1-4 4.4-5 7-1 2.5-1.5 5-1.5 7.3 0 4.7.8 8.4 2.5 11.2 1.7 2.8 4.3 5 7.8 6.5 2.5 1 5.2 2 8.3 3l10.9 2.8L490 79c3.6.9 6.7 2 9.4 3.6 2.7 1.5 5 3.4 6.7 5.7a15 15 0 012.6 9.2c0 3.6-.9 6.7-2.6 9.3a20.8 20.8 0 01-6.6 6.2 29.3 29.3 0 01-9 3.5c-3.2.8-6.4 1.1-9.5 1.1a35.4 35.4 0 01-23.2-6.7c-5.4-4.5-8.1-11.6-8.1-21.3h-3.3c0 10.8 2.9 18.7 8.7 23.7 5.8 5 14.5 7.5 26 7.5 3.6 0 7.3-.4 11-1.3 3.7-.8 7-2.1 10-4a22.6 22.6 0 007.2-7.4c1.8-3 2.7-6.6 2.7-11 0-4-.8-7.4-2.4-10a20.3 20.3 0 00-6.3-6.3c-2.7-1.7-5.6-3-8.9-4a516 516 0 00-9.9-2.7 1726.7 1726.7 0 00-12.2-3.1c-3.5-1-6.8-2-9.8-3.2-2.9-1.2-5.2-3-6.9-5.2a16 16 0 01-2.6-9.8c0-.8.2-2.2.7-4.1.4-2 1.5-4 3.2-6.1 1.6-2 4.2-4 7.6-5.5a34 34 0 0114.2-2.4c4 0 7.8.4 11.2 1.3 3.4.9 6.3 2.3 8.8 4.2 2.4 2 4.3 4.5 5.6 7.5 1.4 3 2 6.6 2 11z" fill="#222"/></svg>