<svg width="1823" height="2500" viewBox="0 0 256 351" xmlns="http://www.w3.org/2000/svg" xmlns:xlink="http://www.w3.org/1999/xlink" preserveAspectRatio="xMidYMid"><defs><filter x="-50%" y="-50%" width="200%" height="200%" filterUnits="objectBoundingBox" id="b"><feGaussianBlur stdDeviation="17.5" in="SourceAlpha" result="shadowBlurInner1"/><feOffset in="shadowBlurInner1" result="shadowOffsetInner1"/><feComposite in="shadowOffsetInner1" in2="SourceAlpha" operator="arithmetic" k2="-1" k3="1" result="shadowInnerInner1"/><feColorMatrix values="0 0 0 0 0 0 0 0 0 0 0 0 0 0 0 0 0 0 0.06 0" in="shadowInnerInner1"/></filter><filter x="-50%" y="-50%" width="200%" height="200%" filterUnits="objectBoundingBox" id="d"><feGaussianBlur stdDeviation="3.5" in="SourceAlpha" result="shadowBlurInner1"/><feOffset dx="1" dy="-9" in="shadowBlurInner1" result="shadowOffsetInner1"/><feComposite in="shadowOffsetInner1" in2="SourceAlpha" operator="arithmetic" k2="-1" k3="1" result="shadowInnerInner1"/><feColorMatrix values="0 0 0 0 0 0 0 0 0 0 0 0 0 0 0 0 0 0 0.09 0" in="shadowInnerInner1"/></filter><path d="M1.3 280.7l1.6-3.1 99.3-188.5L58.1 5.6C54.4-1.3 45 .5 43.9 8.2L1.3 280.7z" id="a"/><path d="M134.4 149l32-32.8-32-61c-3-5.8-10.4-6.4-13.4-.6l-17.7 34-.6 1.8 31.7 58.6z" id="c"/></defs><path d="M0 283l2.1-3L102.5 89.5l.2-2L58.5 4.4A8.2 8.2 0 0043 7L0 283z" fill="#FFC24A"/><use fill="#FFA712" fill-rule="evenodd" xlink:href="#a"/><use filter="url(#b)" xlink:href="#a"/><path d="M135 150.4l33-33.8-33-62.9c-3.1-6-11.9-6-15 0l-17.6 33.6V90l32.6 60.3z" fill="#F4BD62"/><use fill="#FFA50E" fill-rule="evenodd" xlink:href="#c"/><use filter="url(#d)" xlink:href="#c"/><path fill="#F6820C" d="M0 283l1-1 3.5-1.4 128.4-128 1.7-4.4-32-61.1z"/><path d="M139.1 347.6l116.3-64.9-33.2-204.5a8 8 0 00-13.5-4.3L0 283l115.6 64.5a24.1 24.1 0 0023.5 0" fill="#FDE068"/><path d="M254.4 282.2l-33-203c-1-6.3-7.6-9-12.1-4.4L1.3 282.6l114.3 64a24 24 0 0023.4 0l115.4-64.4z" fill="#FCCA3F"/><path d="M139.1 345.6a24.1 24.1 0 01-23.5 0L1 282l-.9 1 115.6 64.5a24.1 24.1 0 0023.5 0l116.3-64.8-.3-1.7-116 64.6z" fill="#EEAB37"/></svg>