<svg width="2222" height="2500" viewBox="0 0 256 288" xmlns="http://www.w3.org/2000/svg" preserveAspectRatio="xMidYMid"><path d="M152.6 33L211.7 67a25.8 25.8 0 015.8-4.6 25.7 25.7 0 0125.7 44.4 25.7 25.7 0 01-6.9 2.8V178a25.7 25.7 0 016.8 2.7 25.7 25.7 0 01-25.6 44.4 25.5 25.5 0 01-6.4-5.1l-58.8 34a25.7 25.7 0 011.3 8 25.7 25.7 0 11-50.2-7.2l-59.1-34.2a25.8 25.8 0 01-5.8 4.5A25.7 25.7 0 0113 180.7a25.7 25.7 0 016.8-2.7v-68.3a25.7 25.7 0 01-6.9-2.8 25.7 25.7 0 0125.7-44.4 25.8 25.8 0 015.8 4.6l59.1-34.2a25.7 25.7 0 01-1-7.3 25.6 25.6 0 1150.2 7.4zm-6.2 10.5l59.3 34.2a25.6 25.6 0 002.4 19.8 25.5 25.5 0 0016 12.1V178l-1 .3-77.4-134.1.7-.7zm-36.1.7L32.9 178.3a25.8 25.8 0 00-1-.3v-68.4a25.5 25.5 0 0016-12 25.6 25.6 0 002.4-20l59.3-34.1.7.7zm24.9 6l77.4 134.1a25.5 25.5 0 00-4.5 5.8 25.7 25.7 0 00-2.7 6.8H50.6A25.7 25.7 0 0048 190a25.8 25.8 0 00-4.5-5.7L121 50.3a25.7 25.7 0 007.1 1c2.5 0 4.9-.4 7.2-1zM147 244.8l58.9-34a25.9 25.9 0 01-.5-1.7H50.6c0 .4-.2.7-.3 1l59.2 34.2a25.6 25.6 0 0118.5-7.8 25.6 25.6 0 0119 8.3z" fill="#E535AB" fill-rule="evenodd"/></svg>