<svg xmlns="http://www.w3.org/2000/svg" width="1771" height="2500" viewBox="221.8 89.5 440 621.1" enable-background="new 221.807 89.47 440 621.061"><filter id="a" width="150%" height="150%" x="-5%" y="-5%"><feFlood flood-color="#000" result="floodFill" flood-opacity=".5"/><feComposite in="floodFill" in2="SourceAlpha" operator="in" result="coloredAlpha"/><feGaussianBlur in="coloredAlpha" result="blur" stdDeviation="8"/><feComposite in="blur" in2="SourceGraphic" operator="out" result="maskedOffsetBlur"/><feMerge><feMergeNode in="maskedOffsetBlur"/><feMergeNode in="SourceGraphic"/></feMerge></filter><g filter="url(#a)"><path fill="#e44d26" d="M261.8 660.6l-40-449h440l-40 449-180.3 50z"/><path fill="#f16529" d="M441.8 672.3L587.4 632l34.3-383.8H441.8z"/><path fill="#ebebeb" d="M441.8 414.8H369l-5-56.4h78v-55H303.6L305 318 318.5 470h123.3zm0 143l-.2.1-61.4-16.5-3.9-44H321l7.7 86.5 112.9 31.4.2-.1z"/><path d="M262.7 89.5h28V117h25.6V89.5h28v83.7h-28v-28h-25.6v28h-28V89.5zm118.4 27.7h-24.6V89.5h77.3v27.7h-24.7v56h-28v-56zm65-27.7h29.2l18 29.4L511 89.5h29.2v83.7h-27.8v-41.5l-19.3 29.8h-.5l-19.2-29.8v41.5H446V89.5zm108.2 0h28v56h39.3v27.7h-67.3V89.5z"/><path fill="#fff" d="M441.6 414.8V470h67.8l-6.3 71.4-61.5 16.6v57.3l113-31.3.8-9.3 13-145 1.3-14.8h-14.9zm0-111.5v55.1h133l1.2-12.4 2.5-27.9 1.3-14.8z"/></g></svg>