<svg xmlns="http://www.w3.org/2000/svg" width="1344" height="2500" viewBox="6.5 4.4 290.8 540.9"><path d="M285.1 431h-2v-1.2h5.5v1.1h-2v5.7H285V431zm11 .2l-2.1 5.4h-1l-2-5.4v5.4h-1.3v-6.8h2l1.8 4.8 1.9-4.8h2v6.8H296v-5.4z" fill="#e76f00"/><path d="M102.7 291.3s-14.2 8.3 10 11c29.5 3.4 44.5 3 76.9-3.2 0 0 8.5 5.3 20.4 10-72.6 31-164.4-1.8-107.3-17.8m-8.9-40.6S78 262.5 102.2 265c31.4 3.2 56.2 3.5 99.1-4.8 0 0 6 6 15.3 9.3-87.8 25.7-185.6 2-122.8-18.8" fill="#5382a1"/><path d="M168.6 181.8c18 20.6-4.7 39.1-4.7 39.1s45.5-23.4 24.6-52.8c-19.5-27.4-34.4-41 46.5-88 0 0-127 31.8-66.4 101.7" fill="#e76f00"/><path d="M264.7 321.4s10.5 8.6-11.6 15.3c-41.9 12.7-174.5 16.5-211.3.5-13.2-5.8 11.6-13.7 19.4-15.4 8.2-1.8 12.8-1.5 12.8-1.5C59.3 310-21 340.7 33.2 349.5c148 24 269.9-10.8 231.5-28.1M109.5 208.6s-67.4 16-23.9 21.8c18.4 2.5 55 2 89.2-1 28-2.3 56-7.3 56-7.3s-9.9 4.2-17 9.1c-68.5 18-200.8 9.6-162.7-8.8 32.2-15.5 58.4-13.8 58.4-13.8m121 67.6c69.6-36.1 37.4-70.9 15-66.2-5.6 1.1-8 2.1-8 2.1s2-3.2 6-4.6c44.3-15.6 78.5 46.1-14.4 70.6 0 0 1-1 1.4-1.9" fill="#5382a1"/><path d="M188.5 4.4S227 43 151.9 102.3c-60.2 47.5-13.7 74.6 0 105.6-35.2-31.7-61-59.6-43.6-85.6C133.7 84.2 204 65.7 188.5 4.4" fill="#e76f00"/><path d="M116.3 374.2c66.9 4.3 169.5-2.3 171.9-34 0 0-4.7 12-55.2 21.6a549.4 549.4 0 01-169.1 2.6s8.5 7 52.4 9.8" fill="#5382a1"/><path d="M105.4 495c-6.3 5.5-13 8.6-19 8.6-8.5 0-13-5.1-13-13.3 0-8.9 4.9-15.4 24.7-15.4h7.3V495m17.4 19.7v-60.8c0-15.5-8.9-25.7-30.2-25.7-12.5 0-23.4 3-32.2 7l2.5 10.7c7-2.5 16-5 25-5 12.2 0 17.5 5 17.5 15.3v7.6h-6.1c-30 0-43.4 11.6-43.4 29 0 15 8.9 23.6 25.6 23.6 10.8 0 18.8-4.5 26.3-11l1.3 9.3h13.7zm58 0h-21.7l-26-85H152l16.2 52.2 3.6 15.7c8.2-22.7 14-45.7 16.9-67.9H207a345 345 0 01-26.3 85M264 495c-6.3 5.5-13 8.6-19 8.6-8.4 0-13-5.1-13-13.3 0-8.9 4.9-15.4 24.7-15.4h7.3V495m17.4 19.7v-60.8c0-15.5-8.8-25.7-30.2-25.7-12.4 0-23.3 3-32.2 7l2.6 10.7c7-2.5 16-5 24.9-5 12.2 0 17.5 5 17.5 15.3v7.6H258c-29.9 0-43.3 11.6-43.3 29 0 15 8.8 23.6 25.5 23.6 10.8 0 18.8-4.5 26.3-11l1.4 9.3h13.6zM36.8 529c-5 7.2-13 13-21.7 16.2l-8.6-10.1a36 36 0 0015-14.1c2.4-4.6 3.3-10.5 3.3-24.6v-97h18.5v95.7c0 18.8-1.5 26.5-6.5 33.9" fill="#e76f00"/></svg>