<svg xmlns="http://www.w3.org/2000/svg" width="2500" height="2500" viewBox="0 0 192.8 192.8"><g fill-rule="evenodd" clip-rule="evenodd"><path d="M8.5 128.2h5.8v-23l9 20c1 2.5 2.6 3.4 5.4 3.4 2.9 0 4.3-1 5.3-3.3l9-20v23H49v-23c0-2.3-1-3.4-2.8-4-4.4-1.3-7.3-.1-8.7 2.9L28.5 124 20 104.2c-1.3-3-4.3-4.2-8.8-2.8-1.8.5-2.7 1.6-2.7 3.8v23zm45.2-18.7h5.8v12.6c0 .8.3 2.4 3.4 2.4h12.7v-15h5.9V130c0 5-6.3 6.2-9.3 6.2H53.8v-3.8h18.5c3.7-.4 3.3-2.3 3.3-3V128H63.2c-5.8 0-9.5-2.6-9.5-5.5v-13zM179.1 95c-3.6-.1-6.4.3-8.7 1.2-.6.3-1.7.3-1.8 1.2.3.3.4.9.7 1.4.5.9 1.5 2 2.3 2.7l2.9 2c1.7 1.1 3.7 1.7 5.4 2.8l3 2.1c.4.4.7 1 1.4 1.2v-.2c-.4-.4-.5-1-.8-1.4l-1.3-1.3a21.1 21.1 0 00-4.6-4.5c-1.5-1-4.6-2.3-5.2-4 1-.1 2-.5 3-.8 1.5-.4 3-.3 4.5-.7l2.1-.6v-.4c-.8-.8-1.4-1.9-2.2-2.6-2.3-2-4.8-4-7.4-5.5-1.4-1-3.1-1.5-4.6-2.2-.5-.3-1.4-.5-1.8-.9-.8-1-1.2-2.3-1.8-3.4-1.3-2.5-2.5-5.2-3.6-7.8-.8-1.7-1.3-3.5-2.3-5A45 45 0 00141 51.3c-1.6-1-3.6-1.3-5.7-1.8l-3.3-.2c-.8-.3-1.5-1.1-2-1.5-2.6-1.6-9.2-5.1-11-.5-1.3 2.9 1.7 5.7 2.7 7.2.8 1 1.8 2.2 2.3 3.3l.7 2.4c.7 2 1.4 4.2 2.4 6 .4 1 1 2 1.6 2.8.4.4 1 .7 1.1 1.5-.6.9-.7 2.2-1 3.3-1.6 5-1 11.3 1.3 15 .7 1.1 2.4 3.6 4.7 2.6 2-.8 1.5-3.3 2.1-5.5.1-.6 0-1 .3-1.3v.1l1.9 3.7c1.3 2.2 3.7 4.5 5.8 6 1 .8 1.9 2.2 3.2 2.7V97c-.3-.4-.7-.6-1.1-.9-.8-.8-1.7-1.7-2.3-2.6a57.5 57.5 0 01-5-8.2l-2-4.2c-.2-.6-.2-1.4-.7-1.6-.6 1-1.6 1.8-2.1 3-.8 1.9-1 4.3-1.2 6.7l-.2.1c-1.5-.3-2-1.8-2.5-3a19.3 19.3 0 01-.4-12c.3-1 1.7-3.9 1.1-4.8-.2-.8-1.1-1.3-1.6-2a18 18 0 01-1.6-2.8c-1-2.5-1.6-5.3-2.8-7.8-.5-1.1-1.5-2.3-2.2-3.4-.9-1.2-1.8-2-2.5-3.5-.2-.5-.5-1.3-.1-1.8 0-.4.2-.5.6-.6.6-.5 2.2.1 2.8.4 1.6.7 3 1.3 4.4 2.2.6.5 1.3 1.3 2.1 1.5h1c1.4.4 3 .1 4.3.5a39.6 39.6 0 0120.3 18.3c.6 1.1.8 2 1.3 3.1l3 6.6c1 2 1.9 4.2 3.2 6 .7.9 3.4 1.4 4.6 1.9.8.4 2.2.7 3 1.2l4.5 3c.7.6 3 1.7 3 2.6z" fill="#00678c"/><path d="M133.6 56.1a7 7 0 00-1.9.2v.1h.1c.4.7 1 1.2 1.5 1.9l1 2.1c.7-.5 1-1.3 1-2.3-.3-.3-.3-.6-.5-1-.3-.4-.9-.6-1.2-1z" fill="#00678c"/><path d="M86 128.2h16.7c2 0 3.8-.4 5.3-1.1 2.6-1.2 3.8-2.7 3.8-4.8V118c0-1.6-1.4-3.2-4.2-4.2-1.4-.6-3.2-.9-5-.9h-7c-2.3 0-3.4-.7-3.7-2.3v-3.1-.5c.3-1.2.9-1.5 3-1.8H112v-3.8H95.7a15 15 0 00-4.7.4c-3.5 1.1-5 2.8-5 5.8v3.4c0 2.6 3 4.9 8 5.4H102.2c1.8.3 2.6.6 3.2 1.2.3.4.4.7.4 1.1v3.4c0 .4-.3 1-.8 1.4-.5.4-1.4.7-2.5.8H86v4zm62.1-6.7c0 4 3 6.2 9 6.6l1.7.1h15.1v-3.9h-15.3c-3.4 0-4.6-.8-4.6-2.9v-20H148v20zm-32.6.2v-13.9c0-3.5 2.5-5.6 7.4-6.3l1.5-.1h12.7c4.9.8 7.4 2.9 7.4 6.4v13.9c0 2.8-1 4.3-3.5 5.4l5.7 5.1H140l-4.7-4.2-4.6.3h-6.3c-1 0-2.2-.1-3.4-.4-3.7-1-5.5-3-5.5-6.2zm6.3-.4l.1.6c.3 1.6 1.8 2.5 4.2 2.5h5.2l-4.8-4.3h6.8l4.2 3.8c.8-.5 1.3-1 1.5-1.9V108.2v-.6c-.3-1.5-1.9-2.3-4.1-2.3H126c-2.6 0-4.3 1.1-4.3 2.9v13.1zm54.8 7h.9V125h1v-.7h-3v.7h1.1v3.3zm6.5 0h.8v-4h-1.2l-1 2.7-1-2.7h-1.2v4h.7v-3l1.2 3h.6l1-3v3z" fill="#ce8b2c"/></g></svg>